<svg width="693" height="222" viewBox="0 0 693 222" fill="none" xmlns="http://www.w3.org/2000/svg">
<g clip-path="url(#clip0)">
<path d="M100 120L110.995 109.8C121.949 99.6 144.063 79.2 165.889 75.783C187.838 72.57 209.952 85.83 231.778 103.017C253.727 120 275.841 140.4 297.667 150.6C319.616 160.8 341.73 160.8 363.556 150.6C385.505 140.4 407.619 120 429.444 126.783C451.394 133.77 473.508 167.43 495.333 154.017C517.283 140.4 539.397 79.2 561.222 75.783C583.171 72.57 605.285 126.63 627.111 154.017C649.06 181.2 671.174 181.2 693 154.017C714.949 126.63 737.063 72.57 758.889 69C780.838 65.43 802.952 113.37 824.778 140.4C846.727 167.43 868.841 174.57 890.667 181.2C912.616 187.83 934.73 194.97 956.556 171C978.505 147.03 1000.62 92.97 1022.44 69C1044.39 45.03 1066.51 52.17 1088.33 52.017C1110.28 52.17 1132.4 45.03 1154.22 38.4C1176.17 31.77 1198.29 24.63 1220.11 21.417C1242.06 18 1264.17 18 1286 28.2C1307.95 38.4 1330.06 58.8 1351.89 75.783C1373.84 92.97 1395.95 106.23 1417.78 120C1439.73 133.77 1461.84 147.03 1483.67 160.8C1505.62 174.57 1527.73 187.83 1549.56 194.817C1571.5 201.6 1593.62 201.6 1615.44 177.783C1637.39 154.17 1659.51 106.23 1670.21 82.617L1681.33 58.8V222H1670.34C1659.38 222 1637.27 222 1615.44 222C1593.5 222 1571.38 222 1549.56 222C1527.61 222 1505.49 222 1483.67 222C1461.72 222 1439.6 222 1417.78 222C1395.83 222 1373.71 222 1351.89 222C1329.94 222 1307.83 222 1286 222C1264.05 222 1241.94 222 1220.11 222C1198.16 222 1176.05 222 1154.22 222C1132.27 222 1110.16 222 1088.33 222C1066.38 222 1044.27 222 1022.44 222C1000.5 222 978.381 222 956.556 222C934.606 222 912.492 222 890.667 222C868.717 222 846.603 222 824.778 222C802.829 222 780.715 222 758.889 222C736.94 222 714.826 222 693 222C671.051 222 648.937 222 627.111 222C605.162 222 583.048 222 561.222 222C539.273 222 517.159 222 495.333 222C473.384 222 451.27 222 429.444 222C407.495 222 385.381 222 363.556 222C341.606 222 319.492 222 297.667 222C275.717 222 253.603 222 231.778 222C209.829 222 187.715 222 165.889 222C143.94 222 121.826 222 111.119 222H100V120Z" fill="url(#paint0_linear)"/>
</g>
<g clip-path="url(#clip1)">
<path d="M0 102L10.9952 91.8C21.9492 81.6 44.0632 61.2 65.8889 57.783C87.8381 54.57 109.952 67.83 131.778 85.017C153.727 102 175.841 122.4 197.667 132.6C219.616 142.8 241.73 142.8 263.556 132.6C285.505 122.4 307.619 102 329.444 108.783C351.394 115.77 373.508 149.43 395.333 136.017C417.283 122.4 439.397 61.2 461.222 57.783C483.171 54.57 505.285 108.63 527.111 136.017C549.06 163.2 571.174 163.2 593 136.017C614.949 108.63 637.063 54.57 658.889 51C680.838 47.43 702.952 95.37 724.778 122.4C746.727 149.43 768.841 156.57 790.667 163.2C812.616 169.83 834.73 176.97 856.556 153C878.505 129.03 900.619 74.97 922.444 51C944.394 27.03 966.508 34.17 988.333 34.017C1010.28 34.17 1032.4 27.03 1054.22 20.4C1076.17 13.77 1098.29 6.62998 1120.11 3.41698C1142.06 -1.70928e-05 1164.17 -1.66064e-05 1186 10.2C1207.95 20.4 1230.06 40.8 1251.89 57.783C1273.84 74.97 1295.95 88.23 1317.78 102C1339.73 115.77 1361.84 129.03 1383.67 142.8C1405.62 156.57 1427.73 169.83 1449.56 176.817C1471.5 183.6 1493.62 183.6 1515.44 159.783C1537.39 136.17 1559.51 88.23 1570.21 64.617L1581.33 40.8V204H1570.34C1559.38 204 1537.27 204 1515.44 204C1493.5 204 1471.38 204 1449.56 204C1427.61 204 1405.49 204 1383.67 204C1361.72 204 1339.6 204 1317.78 204C1295.83 204 1273.71 204 1251.89 204C1229.94 204 1207.83 204 1186 204C1164.05 204 1141.94 204 1120.11 204C1098.16 204 1076.05 204 1054.22 204C1032.27 204 1010.16 204 988.333 204C966.384 204 944.27 204 922.444 204C900.495 204 878.381 204 856.556 204C834.606 204 812.492 204 790.667 204C768.717 204 746.603 204 724.778 204C702.829 204 680.715 204 658.889 204C636.94 204 614.826 204 593 204C571.051 204 548.937 204 527.111 204C505.162 204 483.048 204 461.222 204C439.273 204 417.159 204 395.333 204C373.384 204 351.27 204 329.444 204C307.495 204 285.381 204 263.556 204C241.606 204 219.492 204 197.667 204C175.717 204 153.603 204 131.778 204C109.829 204 87.7146 204 65.8889 204C43.9397 204 21.8257 204 11.1188 204H0V102Z" fill="url(#paint1_linear)"/>
<g clip-path="url(#clip2)">
<path d="M0 102L10.9952 91.8C21.9492 81.6 44.0632 61.2 65.8889 57.783C87.8381 54.57 109.952 67.83 131.778 85.017C153.727 102 175.841 122.4 197.667 132.6C219.616 142.8 241.73 142.8 263.556 132.6C285.505 122.4 307.619 102 329.444 108.783C351.394 115.77 373.508 149.43 395.333 136.017C417.283 122.4 439.397 61.2 461.222 57.783C483.171 54.57 505.285 108.63 527.111 136.017C549.06 163.2 571.174 163.2 593 136.017C614.949 108.63 637.063 54.57 658.889 51C680.838 47.43 702.952 95.37 724.778 122.4C746.727 149.43 768.841 156.57 790.667 163.2C812.616 169.83 834.73 176.97 856.556 153C878.505 129.03 900.619 74.97 922.444 51C944.394 27.03 966.508 34.17 988.333 34.017C1010.28 34.17 1032.4 27.03 1054.22 20.4C1076.17 13.77 1098.29 6.62998 1120.11 3.41698C1142.06 -1.70928e-05 1164.17 -1.66064e-05 1186 10.2C1207.95 20.4 1230.06 40.8 1251.89 57.783C1273.84 74.97 1295.95 88.23 1317.78 102C1339.73 115.77 1361.84 129.03 1383.67 142.8C1405.62 156.57 1427.73 169.83 1449.56 176.817C1471.5 183.6 1493.62 183.6 1515.44 159.783C1537.39 136.17 1559.51 88.23 1570.21 64.617L1581.33 40.8V204H1570.34C1559.38 204 1537.27 204 1515.44 204C1493.5 204 1471.38 204 1449.56 204C1427.61 204 1405.49 204 1383.67 204C1361.72 204 1339.6 204 1317.78 204C1295.83 204 1273.71 204 1251.89 204C1229.94 204 1207.83 204 1186 204C1164.05 204 1141.94 204 1120.11 204C1098.16 204 1076.05 204 1054.22 204C1032.27 204 1010.16 204 988.333 204C966.384 204 944.27 204 922.444 204C900.495 204 878.381 204 856.556 204C834.606 204 812.492 204 790.667 204C768.717 204 746.603 204 724.778 204C702.829 204 680.715 204 658.889 204C636.94 204 614.826 204 593 204C571.051 204 548.937 204 527.111 204C505.162 204 483.048 204 461.222 204C439.273 204 417.159 204 395.333 204C373.384 204 351.27 204 329.444 204C307.495 204 285.381 204 263.556 204C241.606 204 219.492 204 197.667 204C175.717 204 153.603 204 131.778 204C109.829 204 87.7146 204 65.8889 204C43.9397 204 21.8257 204 11.1188 204H0V102Z" fill="url(#paint2_linear)"/>
</g>
</g>
<defs>
<linearGradient id="paint0_linear" x1="100" y1="222" x2="100" y2="19.3708" gradientUnits="userSpaceOnUse">
<stop stop-color="#8E54E9"/>
<stop offset="1" stop-color="#4776E6"/>
</linearGradient>
<linearGradient id="paint1_linear" x1="0" y1="204" x2="0" y2="1.37085" gradientUnits="userSpaceOnUse">
<stop stop-color="#8E54E9" stop-opacity="0.6"/>
<stop offset="1" stop-color="#4776E6" stop-opacity="0.33"/>
</linearGradient>
<linearGradient id="paint2_linear" x1="0" y1="204" x2="0" y2="1.37085" gradientUnits="userSpaceOnUse">
<stop stop-color="#8E54E9" stop-opacity="0.6"/>
<stop offset="1" stop-color="#4776E6" stop-opacity="0.33"/>
</linearGradient>
<clipPath id="clip0">
<rect width="593" height="204" fill="white" transform="translate(100 18)"/>
</clipPath>
<clipPath id="clip1">
<rect width="593" height="204" fill="white"/>
</clipPath>
<clipPath id="clip2">
<rect width="593" height="204" fill="white"/>
</clipPath>
</defs>
</svg>
