<svg width="1440" height="271" viewBox="0 0 1440 271" fill="none" xmlns="http://www.w3.org/2000/svg">
<path d="M0 110.506L21.8 126.506C43.6 142.506 87 174.506 131 158.506C174.5 142.506 218 78.5064 262 41.2064C305.5 3.50643 349 -6.49357 393 3.80643C436.4 14.5064 480 46.5064 524 78.5064C567.3 110.506 611 142.506 655 174.506C698.2 206.506 742 238.506 785 233.206C829.1 227.506 873 185.506 916 142.506C960 99.5064 1004 57.5064 1047 67.8064C1090.9 78.5064 1135 142.506 1178 174.506C1221.8 206.506 1265 206.506 1309 211.806C1352.7 217.506 1396 227.506 1418 233.206L1440 238.506V270.506H1418.2C1396.4 270.506 1353 270.506 1309 270.506C1265.5 270.506 1222 270.506 1178 270.506C1134.5 270.506 1091 270.506 1047 270.506C1003.6 270.506 960 270.506 916 270.506C872.7 270.506 829 270.506 785 270.506C741.8 270.506 698 270.506 655 270.506C610.9 270.506 567 270.506 524 270.506C480 270.506 436 270.506 393 270.506C349.1 270.506 305 270.506 262 270.506C218.2 270.506 175 270.506 131 270.506C87.3 270.506 44 270.506 22 270.506H0V110.506Z" fill="url(#paint0_linear)"/>
<defs>
<linearGradient id="paint0_linear" x1="720" y1="0" x2="720" y2="270.506" gradientUnits="userSpaceOnUse">
<stop stop-color="#8E54E9"/>
<stop offset="1" stop-color="#4776E6"/>
</linearGradient>
</defs>
</svg>
